<?xml version="1.0" standalone="no"?>
<!DOCTYPE svg PUBLIC "-//W3C//DTD SVG 20010904//EN"
 "http://www.w3.org/TR/2001/REC-SVG-20010904/DTD/svg10.dtd">
<svg version="1.0" xmlns="http://www.w3.org/2000/svg"
 viewBox="0 0 2600.000000 2600.000000"
 preserveAspectRatio="xMidYMid meet">
<metadata>
Created by potrace 1.15, written by Peter Selinger 2001-2017
</metadata>
<g transform="translate(0.000000,2600.000000) scale(0.100000,-0.100000)"
fill="#000000" stroke="none">
<path d="M13766 18019 c-225 -29 -495 -178 -981 -540 -121 -91 -285 -209 -365
-264 -464 -317 -773 -585 -1505 -1305 -204 -201 -457 -447 -561 -546 -233
-223 -371 -365 -589 -604 -293 -322 -531 -555 -676 -662 l-36 -27 -69 51
c-126 93 -477 323 -599 392 -455 262 -890 409 -1164 393 -182 -10 -272 -50
-753 -338 -718 -431 -1264 -821 -2478 -1774 -459 -361 -618 -481 -1056 -797
-451 -327 -705 -530 -960 -766 -123 -114 -297 -295 -318 -329 -6 -10 32 -13
174 -13 l181 0 102 98 c260 248 534 466 1162 922 367 266 407 297 895 680
1160 910 1749 1333 2425 1737 450 269 505 296 629 309 165 17 479 -77 807
-242 289 -144 514 -290 1064 -689 576 -418 802 -556 2095 -1280 938 -525 1341
-796 2040 -1373 l195 -161 208 -1 c126 0 207 4 205 9 -2 6 -133 117 -293 247
-960 786 -1218 959 -2510 1679 -485 270 -740 417 -965 553 -193 118 -568 365
-699 462 l-85 63 30 26 c260 225 319 283 690 691 138 151 345 365 460 475 115
110 364 353 554 539 787 775 1084 1034 1536 1343 89 61 260 184 380 274 474
354 733 499 896 499 102 0 235 -51 371 -141 104 -70 309 -286 487 -514 229
-291 294 -368 411 -479 124 -118 241 -197 464 -313 337 -176 380 -216 653
-624 144 -214 226 -316 322 -400 34 -30 92 -81 129 -114 40 -35 109 -82 168
-113 223 -116 312 -204 618 -612 167 -223 311 -370 612 -629 117 -100 248
-221 290 -269 207 -232 294 -302 394 -318 l43 -7 -82 94 c-113 130 -167 207
-336 483 -197 322 -234 372 -411 543 -132 128 -215 227 -215 255 0 14 40 9 78
-11 20 -11 72 -44 114 -75 122 -87 211 -125 223 -93 11 27 -36 123 -115 235
-43 61 -76 112 -74 112 3 0 148 -116 322 -258 174 -142 452 -363 617 -492 940
-733 1268 -1003 1525 -1255 402 -393 524 -463 1017 -579 407 -95 499 -147 823
-461 194 -188 266 -253 385 -342 172 -129 459 -309 686 -431 l96 -52 303 0
c178 0 300 4 295 9 -6 5 -75 39 -155 76 -273 126 -649 334 -880 488 -189 126
-302 219 -485 396 -214 207 -304 286 -405 353 -161 106 -293 155 -665 246
-381 93 -458 136 -755 427 -102 99 -219 212 -260 250 -89 83 -835 682 -1320
1060 -190 148 -453 357 -585 465 -725 593 -984 770 -1396 960 -185 84 -552
213 -678 236 -25 5 -41 18 -65 52 -98 144 -214 287 -292 362 -106 102 -203
167 -379 257 -361 183 -441 253 -779 683 -277 353 -392 477 -557 600 -86 64
-223 137 -319 170 -63 21 -200 51 -223 49 -7 -1 -43 -6 -81 -10z"/>
<path d="M13610 17292 c-366 -184 -700 -401 -1055 -687 -350 -281 -662 -573
-1264 -1181 -437 -442 -470 -473 -781 -731 -329 -273 -444 -375 -581 -519 -76
-78 -189 -219 -189 -234 0 -10 244 -169 500 -327 505 -310 1066 -621 1837
-1016 422 -216 412 -211 908 -507 566 -338 711 -417 972 -529 137 -58 316
-122 383 -136 l35 -8 -39 44 c-87 99 -298 309 -409 406 -159 140 -337 280
-757 598 -553 418 -793 621 -999 846 -117 127 -218 249 -206 249 3 0 68 -24
143 -54 256 -101 605 -198 996 -277 217 -43 1087 -192 1092 -186 2 2 -117 98
-264 213 -578 453 -818 659 -1123 963 -212 213 -307 318 -425 471 -76 99 -146
202 -140 207 2 3 116 16 253 29 378 36 525 57 670 99 l52 15 -11 32 c-14 39
-4 428 17 683 31 377 46 499 81 635 115 452 244 725 437 928 33 34 56 62 51
62 -5 0 -88 -40 -184 -88z"/>
<path d="M14910 14708 c0 -3 67 -138 148 -300 96 -188 162 -334 187 -408 45
-134 105 -257 160 -326 22 -27 141 -152 265 -279 254 -258 290 -306 385 -513
121 -264 214 -413 382 -614 96 -114 141 -152 315 -269 267 -179 443 -345 515
-486 22 -43 60 -136 83 -208 49 -150 122 -335 152 -382 l20 -33 439 0 440 0
-34 43 c-53 67 -72 103 -131 254 -30 78 -64 159 -74 180 -67 130 -211 244
-527 418 -241 132 -338 201 -523 370 -268 245 -727 705 -756 756 -15 26 -44
94 -65 152 -46 126 -72 173 -143 252 -30 33 -81 94 -115 135 -71 87 -145 159
-258 253 -166 137 -303 290 -550 617 -77 102 -175 228 -219 280 -94 114 -96
116 -96 108z"/>
<path d="M15807 14313 c-4 -6 33 -32 81 -58 129 -72 164 -99 220 -173 62 -82
119 -188 212 -397 154 -344 236 -441 520 -618 186 -116 303 -235 377 -381 19
-39 57 -128 84 -199 122 -321 267 -514 508 -676 139 -92 211 -125 440 -200
325 -107 387 -147 466 -301 53 -101 75 -125 170 -178 56 -31 75 -47 93 -82 12
-25 22 -59 22 -77 l0 -33 105 0 c103 0 105 0 111 -25 l6 -25 457 0 456 1 -146
143 c-167 163 -345 309 -516 425 -65 43 -172 125 -238 182 -140 122 -196 158
-428 281 -202 107 -425 234 -518 295 -116 76 -165 142 -214 293 -49 149 -136
218 -375 295 -263 85 -331 138 -426 332 -107 221 -157 272 -373 387 -162 87
-165 89 -311 231 -69 67 -150 139 -180 161 -30 21 -107 86 -170 143 -140 127
-227 193 -294 226 -57 27 -130 42 -139 28z"/>
<path d="M7105 14253 c-169 -36 -380 -135 -597 -280 -219 -146 -466 -352 -898
-748 -378 -346 -505 -451 -725 -598 -220 -147 -416 -288 -825 -592 -447 -332
-499 -368 -775 -535 -247 -150 -306 -188 -420 -274 -92 -70 -255 -223 -255
-241 0 -17 38 -49 87 -74 l42 -21 2341 0 2341 0 51 26 c53 27 158 119 158 138
0 6 -57 26 -128 45 -161 43 -459 139 -913 296 -553 192 -829 273 -1134 335
-82 17 -150 32 -151 33 -5 5 75 166 108 219 l36 55 83 16 c218 42 457 46 1054
17 465 -23 1304 -13 1790 20 162 12 568 50 573 54 3 4 -96 45 -238 99 -171 66
-413 144 -815 262 -505 149 -616 184 -903 291 -139 52 -306 110 -370 128 -113
33 -280 66 -329 66 -22 0 -19 7 39 77 35 43 101 116 148 164 241 244 443 234
1370 -66 299 -97 598 -185 710 -209 41 -9 212 -27 380 -41 308 -26 454 -41
500 -52 22 -6 21 -1 -20 48 -195 234 -459 426 -1130 819 -162 95 -378 227
-480 293 -357 234 -489 277 -705 230z"/>
</g>
</svg>
