<?xml version="1.0" encoding="UTF-8"?>
<svg width="148.08995mm" height="93.942001mm" version="1.1" viewBox="0 0 148.09 93.942" xmlns="http://www.w3.org/2000/svg" xmlns:xlink="http://www.w3.org/1999/xlink">
   <defs>
         <mask id="a" maskUnits="userSpaceOnUse">
            <path d="m9.1575 58.049 0.32512 43.094 71.238-20.078-3.0821-80.132-54.792-23.291-27.911 8.2856 0.37889 42.046 1.87 4.4534 27.923-4.8345-15.951 30.456" fill="#fff" fill-rule="evenodd" stroke-opacity="0" style="paint-order:stroke markers fill"/>
         </mask>
            <mask id="b" maskUnits="userSpaceOnUse">
            <path d="m-22.893-7.5999h96.061v100.85h-96.061z" fill="#fff"/>
            <path d="m-22.893-7.5999h96.061v100.85h-96.061z" fill="#fff"/>
            <g transform="matrix(.95054 -.31061 -.31061 -.95054 7.3984 176.45)" style="">
            <path d="m87.689 112-4.8824 28.449 13.441-2.1176 12.122-6.3725z" fill="url(#c)" fill-rule="evenodd" stroke-opacity="0" style="paint-order:stroke markers fill"/>
            <path d="m87.689 112 71.855 5.5434-2.9104-107.75-184.41 6.0854 9.2604 181.77 102.92-15.875-1.5953-41.322 4.8824-28.449" fill-rule="evenodd" stroke-opacity="0" style="paint-order:stroke markers fill"/>
            <path d="m96.247 138.33 12.122-6.3725 12.926 2.6579 7.6082 13.186-20.534 14.125s-11.651-12.348-12.206-13.47c-0.55495-1.1225 0.08384-10.126 0.08384-10.126z" fill-rule="evenodd" stroke-opacity="0" style="paint-order:stroke markers fill"/>
            </g>
         </mask>
         <linearGradient id="c" x1="100" x2="100" y1="40.687" y2="148.08" gradientUnits="userSpaceOnUse">
            <stop stop-color="#fff" offset="0"/>
            <stop offset="1"/>
         </linearGradient>
   </defs>
   <g transform="translate(-25.954 -53.008)" fill-rule="evenodd" stroke-opacity="0">
         <path transform="rotate(18.096 -142.5 216.13)" d="m72.009 73.166-33.895-5.7584-23.959 24.657-4.9974-34.015-30.854-15.167 30.806-15.264 4.8902-34.031 24.037 24.581 33.876-5.8652-15.951 30.456z" fill="#d2c249" style="paint-order:stroke markers fill"/>
         <path transform="rotate(18.096 -117.9 370.73)" d="m72.009 73.166-33.895-5.7584-23.959 24.657-4.9974-34.015-30.854-15.167 30.806-15.264 4.8902-34.031 24.037 24.581 33.876-5.8652-15.951 30.456z" fill="#1072bd" mask="url(#a)" style="paint-order:stroke markers fill"/>
         <path transform="matrix(.95054 -.31061 -.31061 -.95054 60.084 171.01)" d="m72.009 73.166-33.895-5.7584-23.959 24.657-4.9974-34.015-30.854-15.167 30.806-15.264 4.8902-34.031 24.037 24.581 33.876-5.8652-15.951 30.456z" mask="url(#b)" style="paint-order:stroke markers fill"/>
   </g>
</svg>